<?xml version="1.0" encoding="UTF-8" standalone="no"?>
<!DOCTYPE svg PUBLIC "-//W3C//DTD SVG 1.1//EN" "http://www.w3.org/Graphics/SVG/1.1/DTD/svg11.dtd">
<svg width="100%" height="100%" viewBox="0 0 7112 4445" version="1.1" xmlns="http://www.w3.org/2000/svg" xmlns:xlink="http://www.w3.org/1999/xlink" xml:space="preserve" style="fill-rule:evenodd;clip-rule:evenodd;stroke-linecap:round;stroke-linejoin:round;stroke-miterlimit:1.5;">
    <g transform="matrix(5.55556,0,0,5.55556,0,0)">
        <rect id="Artboard1" x="0" y="0" width="1280" height="800" style="fill:none;"/>
        <clipPath id="_clip1">
            <rect id="Artboard11" x="0" y="0" width="1280" height="800"/>
        </clipPath>
        <g clip-path="url(#_clip1)">
            <g transform="matrix(0.631909,0,0,1,113.735,-84.3333)">
                <path d="M200,700L1100,700" style="fill:none;stroke:rgb(106,224,224);stroke-width:11.96px;"/>
            </g>
            <g transform="matrix(1,0,0,0.216867,40.1173,459.859)">
                <path d="M200,700L200,617" style="fill:none;stroke:rgb(106,224,224);stroke-width:13.82px;"/>
            </g>
            <g transform="matrix(1,0,0,0.216867,608.836,459.859)">
                <path d="M200,700L200,617" style="fill:none;stroke:rgb(106,224,224);stroke-width:13.82px;"/>
            </g>
            <g transform="matrix(1,0,0,1.10231,0,-52.3712)">
                <path d="M240.117,589.707C240.547,581.251 248.276,569.758 258.044,562.96C271.486,553.605 283,551 283,551" style="fill:none;stroke:rgb(106,224,224);stroke-width:9.5px;stroke-linejoin:bevel;"/>
            </g>
            <g transform="matrix(-1,0,0,1.10231,1048.95,-52.3712)">
                <path d="M240.117,589.707C240.547,581.251 248.276,569.758 258.044,562.96C271.486,553.605 283,551 283,551" style="fill:none;stroke:rgb(106,224,224);stroke-width:9.5px;stroke-linejoin:bevel;"/>
            </g>
            <g transform="matrix(0.657413,0,0,1.77778,156.699,-160.889)">
                <path d="M925,215L1100,239" style="fill:none;stroke:rgb(106,224,224);stroke-width:7.46px;stroke-linejoin:bevel;"/>
            </g>
            <g transform="matrix(2.94993,0,0,0.830621,-1429.94,55.2092)">
                <path d="M744,200L744,354.102" style="fill:none;stroke:rgb(106,224,224);stroke-width:4.61px;stroke-linejoin:bevel;"/>
            </g>
            <g transform="matrix(-0.657413,0,0,1.77778,1487.96,-73.8489)">
                <path d="M925,215L1100,239" style="fill:none;stroke:rgb(106,224,224);stroke-width:7.46px;stroke-linejoin:bevel;"/>
            </g>
            <g transform="matrix(0.98331,0,0,0.993834,-223.42,-9.65364)">
                <path d="M1122,275.351L1122,320" style="fill:none;stroke:rgb(106,224,224);stroke-width:10.12px;stroke-linejoin:bevel;"/>
            </g>
            <g transform="matrix(1,0,0,1,10.4215,-6.52001)">
                <path d="M316,223L28,223" style="fill:none;stroke:rgb(106,224,224);stroke-width:10px;"/>
            </g>
            <g transform="matrix(1,0,0,0.866582,-19.8061,21.3391)">
                <path d="M347,226L347,373.707" style="fill:none;stroke:rgb(106,224,224);stroke-width:10.69px;stroke-linejoin:bevel;"/>
            </g>
            <g transform="matrix(1.00252,0,0,0.982329,-1.67923,0.350024)">
                <path d="M40,219C49.067,281.788 83.275,333.434 206,342C328.725,350.566 328.047,351.04 328.047,351.04" style="fill:none;stroke:rgb(106,224,224);stroke-width:10.08px;stroke-linecap:butt;stroke-linejoin:bevel;"/>
            </g>
            <g transform="matrix(8.94357,0,0,1,-2265.92,3)">
                <path d="M285,552L339,552" style="fill:none;stroke:rgb(106,224,224);stroke-width:1.57px;stroke-linejoin:bevel;"/>
            </g>
            <g transform="matrix(7.84589,0,0,1,-1920.94,-16)">
                <path d="M285,552L339,552" style="fill:none;stroke:rgb(106,224,224);stroke-width:1.79px;stroke-linejoin:bevel;"/>
            </g>
            <g transform="matrix(1,0,0,1,0.333077,4.81332)">
                <path d="M744,351.04C744,351.04 744,253.204 744,215.015C744,206.722 737.278,200 728.985,200C666.21,200 425.124,200 362.348,200C354.056,200 347.334,206.722 347.334,215.015C347.334,253.204 347.334,345.04 347.334,345.04" style="fill:none;stroke:rgb(106,224,224);stroke-width:10px;stroke-linejoin:bevel;"/>
            </g>
            <g transform="matrix(1,0,0,1.01705,0,-6.06818)">
                <path d="M745,356C695.638,372.821 671.314,404.203 673,435C674.686,465.797 710.122,523.538 737,532" style="fill:none;stroke:rgb(106,224,224);stroke-width:9.92px;stroke-linejoin:bevel;"/>
            </g>
            <g transform="matrix(-1.64617,0,0,1.04545,1528.61,-22.3175)">
                <path d="M717.65,356C668.288,372.821 671.314,404.203 673,435C674.686,465.797 710.122,523.538 737,532" style="fill:none;stroke:rgb(106,224,224);stroke-width:7.25px;stroke-linejoin:bevel;"/>
            </g>
            <g transform="matrix(1,0,0,1,-27,29.8994)">
                <path d="M521.373,325.76C521.956,327.393 523.998,328.939 527.498,330.398C530.998,331.856 535.548,332.585 541.148,332.585C546.281,332.585 550.977,331.623 555.236,329.698C559.494,327.773 563.169,324.885 566.261,321.035C569.352,317.185 571.744,312.431 573.436,306.773C575.127,301.114 575.973,294.552 575.973,287.085C575.973,281.602 575.156,276.614 573.523,272.123C571.89,267.631 569.644,263.81 566.786,260.66C563.927,257.51 560.573,255.06 556.723,253.31C552.873,251.56 548.731,250.685 544.298,250.685C541.848,250.685 539.427,251.006 537.036,251.648C534.644,252.289 532.486,253.048 530.561,253.923C528.636,254.798 527.061,255.731 525.836,256.723C524.611,257.714 523.881,258.618 523.648,259.435C523.415,260.135 523.211,261.885 523.036,264.685C522.861,267.485 522.686,270.898 522.511,274.923C522.336,278.948 522.161,283.381 521.986,288.223C521.811,293.064 521.694,297.818 521.636,302.485C521.577,307.152 521.519,311.556 521.461,315.698C521.402,319.839 521.373,323.193 521.373,325.76ZM500.548,326.11C500.548,311.877 500.431,300.268 500.198,291.285C499.965,282.302 499.615,275.273 499.148,270.198C498.681,265.123 498.098,261.652 497.398,259.785C496.698,257.918 495.823,256.985 494.773,256.985C494.423,256.985 493.723,257.014 492.673,257.073C491.623,257.131 490.486,257.16 489.261,257.16C488.036,257.16 486.956,257.131 486.023,257.073C485.09,257.014 484.623,256.868 484.623,256.635C484.623,256.285 484.623,255.614 484.623,254.623C484.623,253.631 484.856,253.018 485.323,252.785C485.906,252.668 487.19,252.61 489.173,252.61C491.156,252.61 493.461,252.668 496.086,252.785C498.711,252.902 501.423,252.989 504.223,253.048C507.023,253.106 509.59,253.135 511.923,253.135C514.256,253.135 516.152,253.135 517.611,253.135C519.069,253.135 519.74,253.018 519.623,252.785C520.09,252.785 521.227,252.406 523.036,251.648C524.844,250.889 527.119,250.043 529.861,249.11C532.602,248.177 535.752,247.331 539.311,246.573C542.869,245.814 546.573,245.435 550.423,245.435C565.006,245.435 576.44,248.498 584.723,254.623C593.006,260.748 597.148,269.177 597.148,279.91C597.148,289.01 595.34,297.148 591.723,304.323C588.106,311.498 583.352,317.623 577.461,322.698C571.569,327.773 564.919,331.652 557.511,334.335C550.102,337.018 542.606,338.36 535.023,338.36C532.69,338.36 530.152,338.243 527.411,338.01C524.669,337.777 522.656,337.368 521.373,336.785C521.373,339.702 521.373,343.493 521.373,348.16C521.373,352.827 521.431,357.493 521.548,362.16C521.665,366.827 521.898,371.056 522.248,374.848C522.598,378.639 523.065,381.118 523.648,382.285C523.998,383.102 524.727,383.598 525.836,383.773C526.944,383.948 528.198,384.006 529.598,383.948C530.998,383.889 532.427,383.773 533.886,383.598C535.344,383.423 536.598,383.335 537.648,383.335C537.998,383.452 538.231,383.714 538.348,384.123C538.465,384.531 538.523,384.998 538.523,385.523C538.523,386.048 538.465,386.514 538.348,386.923C538.231,387.331 537.998,387.535 537.648,387.535C535.431,387.535 532.894,387.798 530.036,388.323C527.177,388.848 524.144,389.548 520.936,390.423C517.727,391.298 514.519,392.318 511.311,393.485C508.102,394.652 505.04,395.877 502.123,397.16C499.323,398.327 495.823,400.164 491.623,402.673C487.423,405.181 483.223,407.689 479.023,410.198C474.823,412.706 470.973,414.893 467.473,416.76C463.973,418.627 461.523,419.56 460.123,419.56C459.54,419.56 458.869,419.327 458.111,418.86C457.352,418.393 456.711,417.868 456.186,417.285C455.661,416.702 455.456,416.148 455.573,415.623C455.69,415.098 456.331,414.718 457.498,414.485C460.415,414.018 463.856,412.852 467.823,410.985C471.79,409.118 475.64,407.077 479.373,404.86C483.106,402.643 486.402,400.514 489.261,398.473C492.119,396.431 493.956,395.002 494.773,394.185C495.356,393.602 495.969,391.006 496.611,386.398C497.252,381.789 497.865,376.189 498.448,369.598C499.031,363.006 499.527,355.831 499.936,348.073C500.344,340.314 500.548,332.993 500.548,326.11Z" style="fill:rgb(106,224,224);fill-rule:nonzero;"/>
            </g>
            <g transform="matrix(1,0,0,1,-269,-17.5752)">
                <path d="M922.006,391.085C920.373,390.735 918.564,390.443 916.581,390.21C914.598,389.976 912.498,389.801 910.281,389.685C908.064,389.568 905.877,389.48 903.718,389.422C901.56,389.364 899.548,389.335 897.681,389.335L892.256,389.335C891.439,389.335 890.739,389.393 890.156,389.51C889.573,389.626 889.281,389.801 889.281,390.035C889.281,393.068 889.31,396.597 889.368,400.622C889.427,404.647 889.543,408.672 889.718,412.697C889.893,416.722 890.098,420.426 890.331,423.81C890.564,427.193 890.914,429.643 891.381,431.16C891.614,432.093 892.606,432.764 894.356,433.172C896.106,433.58 898.089,433.785 900.306,433.785C901.239,433.785 902.202,433.755 903.193,433.697C904.185,433.639 905.323,433.61 906.606,433.61C907.889,433.61 908.881,433.901 909.581,434.485C910.281,435.068 910.631,435.768 910.631,436.585C910.631,437.518 910.543,438.335 910.368,439.035C910.193,439.735 908.939,440.085 906.606,440.085C905.673,440.085 904.185,440.026 902.143,439.91C900.102,439.793 897.885,439.676 895.493,439.56C893.102,439.443 890.623,439.443 888.056,439.56C885.489,439.676 883.214,439.91 881.231,440.26C876.564,441.193 872.189,442.272 868.106,443.497C864.023,444.722 860.348,445.976 857.081,447.26C853.814,448.543 851.073,449.797 848.856,451.022C846.639,452.247 845.064,453.385 844.131,454.435C843.664,455.018 843.314,455.31 843.081,455.31C842.848,455.31 842.556,455.31 842.206,455.31C841.973,455.31 841.389,454.989 840.456,454.347C839.523,453.705 839.056,452.86 839.056,451.81C839.056,451.226 840.018,450.38 841.943,449.272C843.868,448.164 846.173,446.997 848.856,445.772C851.539,444.547 854.339,443.38 857.256,442.272C860.173,441.164 862.681,440.318 864.781,439.735C865.364,438.918 865.86,436.614 866.268,432.822C866.677,429.03 867.027,423.489 867.318,416.197C867.61,408.905 867.843,399.776 868.018,388.81C868.193,377.843 868.339,364.718 868.456,349.435C868.456,345.235 868.398,340.947 868.281,336.572C868.164,332.197 867.989,328.114 867.756,324.322C867.523,320.53 867.173,317.235 866.706,314.435C866.239,311.635 865.656,309.651 864.956,308.485C864.373,307.668 863.293,307.114 861.718,306.822C860.143,306.53 858.306,306.385 856.206,306.385L849.206,306.385C848.623,306.385 847.952,306.385 847.193,306.385C846.435,306.385 845.648,306.297 844.831,306.122C844.014,305.947 843.343,305.685 842.818,305.335C842.293,304.985 842.031,304.518 842.031,303.935C842.031,302.651 842.206,301.747 842.556,301.222C842.906,300.697 844.481,300.435 847.281,300.435C848.448,300.435 849.906,300.493 851.656,300.61C853.406,300.726 855.185,300.814 856.993,300.872C858.802,300.93 860.61,301.018 862.418,301.135C864.227,301.251 865.831,301.31 867.231,301.31C870.964,301.31 875.602,300.96 881.143,300.26C886.685,299.56 892.373,299.093 898.206,298.86C902.523,298.743 906.927,298.655 911.418,298.597C915.91,298.539 920.11,298.48 924.018,298.422C927.927,298.364 931.31,298.305 934.168,298.247C937.027,298.189 938.981,298.043 940.031,297.81C941.081,294.543 942.248,291.714 943.531,289.322C944.814,286.93 946.156,285.676 947.556,285.56C948.139,285.56 948.927,285.764 949.918,286.172C950.91,286.58 951.406,287.135 951.406,287.835C951.056,288.185 950.764,288.535 950.531,288.885C950.064,289.585 949.831,290.11 949.831,290.46C948.431,292.91 947.177,296.06 946.068,299.91C944.96,303.76 944.027,307.726 943.268,311.81C942.51,315.893 941.956,319.86 941.606,323.71C941.256,327.56 941.256,330.768 941.606,333.335C941.256,335.085 940.556,335.96 939.506,335.96C937.639,335.96 936.502,335.639 936.093,334.997C935.685,334.355 935.598,333.685 935.831,332.985C936.064,332.051 936.239,330.855 936.356,329.397C936.473,327.939 936.531,326.743 936.531,325.81C936.531,323.01 935.598,320.589 933.731,318.547C931.864,316.505 929.356,314.814 926.206,313.472C923.056,312.13 919.352,311.11 915.093,310.41C910.835,309.71 906.314,309.36 901.531,309.36C900.248,309.36 898.527,309.389 896.368,309.447C894.21,309.505 892.606,310.001 891.556,310.935C891.323,311.868 891.089,313.851 890.856,316.885C890.623,319.918 890.418,323.505 890.243,327.647C890.068,331.789 889.923,336.222 889.806,340.947C889.689,345.672 889.602,350.251 889.543,354.685C889.485,359.118 889.427,363.143 889.368,366.76C889.31,370.376 889.281,373.06 889.281,374.81C891.614,374.926 893.86,374.985 896.018,374.985C898.177,374.985 900.306,374.985 902.406,374.985C909.406,375.101 915.56,374.955 920.868,374.547C926.177,374.139 929.706,373.643 931.456,373.06C932.506,372.71 933.352,372.214 933.993,371.572C934.635,370.93 935.16,370.26 935.568,369.56C935.977,368.86 936.385,368.247 936.793,367.722C937.202,367.197 937.639,366.935 938.106,366.935C938.689,366.935 939.273,367.226 939.856,367.81C940.439,368.393 940.614,368.918 940.381,369.385C939.681,370.668 939.039,372.447 938.456,374.722C937.873,376.997 937.377,379.505 936.968,382.247C936.56,384.989 936.21,387.818 935.918,390.735C935.627,393.651 935.481,396.393 935.481,398.96C935.481,399.426 935.51,399.893 935.568,400.36C935.627,400.826 935.656,401.351 935.656,401.935C935.656,402.285 935.393,402.547 934.868,402.722C934.343,402.897 933.818,402.985 933.293,402.985C932.768,402.985 932.273,402.926 931.806,402.81C931.339,402.693 931.106,402.46 931.106,402.11C931.106,401.41 931.048,400.564 930.931,399.572C930.814,398.58 930.552,397.618 930.143,396.685C929.735,395.751 929.093,394.847 928.218,393.972C927.343,393.097 926.148,392.368 924.631,391.785L922.006,391.085Z" style="fill:rgb(106,224,224);fill-rule:nonzero;"/>
            </g>
        </g>
    </g>
</svg>
